<svg width="25" height="25" viewBox="0 0 25 25" fill="none" xmlns="http://www.w3.org/2000/svg">
<path d="M17.6667 6.42708C19.75 7.875 21.1875 10.1771 21.4792 12.8333" stroke="#303030" stroke-width="1.5" stroke-linecap="round" stroke-linejoin="round"/>
<path d="M3.63541 12.8854C3.90624 10.2396 5.32291 7.9375 7.38541 6.47917" stroke="#303030" stroke-width="1.5" stroke-linecap="round" stroke-linejoin="round"/>
<path d="M8.53125 21.8125C9.73958 22.4271 11.1146 22.7708 12.5625 22.7708C13.9583 22.7708 15.2708 22.4583 16.4479 21.8854" stroke="#303030" stroke-width="1.5" stroke-linecap="round" stroke-linejoin="round"/>
<path d="M12.5625 8.02083C14.1618 8.02083 15.4583 6.72433 15.4583 5.125C15.4583 3.52568 14.1618 2.22917 12.5625 2.22917C10.9632 2.22917 9.66666 3.52568 9.66666 5.125C9.66666 6.72433 10.9632 8.02083 12.5625 8.02083Z" stroke="#303030" stroke-opacity="0.5" stroke-width="1.5" stroke-linecap="round" stroke-linejoin="round"/>
<path d="M5.03124 20.75C6.63056 20.75 7.92707 19.4535 7.92707 17.8542C7.92707 16.2548 6.63056 14.9583 5.03124 14.9583C3.43192 14.9583 2.13541 16.2548 2.13541 17.8542C2.13541 19.4535 3.43192 20.75 5.03124 20.75Z" stroke="#303030" stroke-opacity="0.5" stroke-width="1.5" stroke-linecap="round" stroke-linejoin="round"/>
<path d="M19.9687 20.75C21.5681 20.75 22.8646 19.4535 22.8646 17.8542C22.8646 16.2548 21.5681 14.9583 19.9687 14.9583C18.3694 14.9583 17.0729 16.2548 17.0729 17.8542C17.0729 19.4535 18.3694 20.75 19.9687 20.75Z" stroke="#303030" stroke-opacity="0.5" stroke-width="1.5" stroke-linecap="round" stroke-linejoin="round"/>
</svg>
