<svg width="24" height="24" viewBox="0 0 24 24" fill="none" xmlns="http://www.w3.org/2000/svg">
<path d="M20.86 8.36997L13.93 2.82997C12.86 1.96997 11.13 1.96997 10.07 2.81997L3.14001 8.36997C2.36001 8.98997 1.86001 10.3 2.03001 11.28L3.36001 19.24C3.60001 20.66 4.96001 21.81 6.40001 21.81H17.6C19.03 21.81 20.4 20.65 20.64 19.24L21.97 11.28C22.13 10.3 21.63 8.98997 20.86 8.36997ZM12 15.5C10.62 15.5 9.50001 14.38 9.50001 13C9.50001 11.62 10.62 10.5 12 10.5C13.38 10.5 14.5 11.62 14.5 13C14.5 14.38 13.38 15.5 12 15.5Z" fill="white"/>
</svg>
